solid OpenSCAD_Model
  facet normal -0.959495 -0.281727 0
    outer loop
      vertex 40.8 0 -2
      vertex 40.2444 1.89224 2
      vertex 40.2444 1.89224 -2
    endloop
  endfacet
  facet normal -0.959495 -0.281727 0
    outer loop
      vertex 40.2444 1.89224 2
      vertex 40.8 0 -2
      vertex 40.8 0 2
    endloop
  endfacet
  facet normal -0.142312 0.989822 0
    outer loop
      vertex 38.754 -3.18371 -2
      vertex 37.3 -3.39276 2
      vertex 38.754 -3.18371 2
    endloop
  endfacet
  facet normal -0.142312 0.989822 0
    outer loop
      vertex 37.3 -3.39276 2
      vertex 38.754 -3.18371 -2
      vertex 37.3 -3.39276 -2
    endloop
  endfacet
  facet normal -0.142312 -0.989822 0
    outer loop
      vertex 37.3 3.39276 -2
      vertex 38.754 3.18371 2
      vertex 37.3 3.39276 2
    endloop
  endfacet
  facet normal -0.142312 -0.989822 -0
    outer loop
      vertex 38.754 3.18371 2
      vertex 37.3 3.39276 -2
      vertex 38.754 3.18371 -2
    endloop
  endfacet
  facet normal -0.65487 -0.755742 0
    outer loop
      vertex 38.754 3.18371 -2
      vertex 40.2444 1.89224 2
      vertex 38.754 3.18371 2
    endloop
  endfacet
  facet normal -0.65487 -0.755742 -0
    outer loop
      vertex 40.2444 1.89224 2
      vertex 38.754 3.18371 -2
      vertex 40.2444 1.89224 -2
    endloop
  endfacet
  facet normal -0.959495 0.281727 0
    outer loop
      vertex 40.2444 -1.89224 -2
      vertex 40.8 0 2
      vertex 40.8 0 -2
    endloop
  endfacet
  facet normal -0.959495 0.281727 0
    outer loop
      vertex 40.8 0 2
      vertex 40.2444 -1.89224 -2
      vertex 40.2444 -1.89224 2
    endloop
  endfacet
  facet normal -0.65487 0.755742 0
    outer loop
      vertex 40.2444 -1.89224 -2
      vertex 38.754 -3.18371 2
      vertex 40.2444 -1.89224 2
    endloop
  endfacet
  facet normal -0.65487 0.755742 0
    outer loop
      vertex 38.754 -3.18371 2
      vertex 40.2444 -1.89224 -2
      vertex 38.754 -3.18371 -2
    endloop
  endfacet
  facet normal 1 -0 0
    outer loop
      vertex -40.6582 -0.986063 2
      vertex -40.6582 0.986063 -2
      vertex -40.6582 0.986063 2
    endloop
  endfacet
  facet normal 1 0 0
    outer loop
      vertex -40.6582 0.986063 -2
      vertex -40.6582 -0.986063 2
      vertex -40.6582 -0.986063 -2
    endloop
  endfacet
  facet normal 0.415416 -0.909631 0
    outer loop
      vertex -39.592 2.64512 -2
      vertex -37.7981 3.46437 2
      vertex -39.592 2.64512 2
    endloop
  endfacet
  facet normal 0.415416 -0.909631 0
    outer loop
      vertex -37.7981 3.46437 2
      vertex -39.592 2.64512 -2
      vertex -37.7981 3.46437 -2
    endloop
  endfacet
  facet normal 0.841256 -0.540637 0
    outer loop
      vertex -40.6582 0.986063 2
      vertex -39.592 2.64512 -2
      vertex -39.592 2.64512 2
    endloop
  endfacet
  facet normal 0.841256 -0.540637 0
    outer loop
      vertex -39.592 2.64512 -2
      vertex -40.6582 0.986063 2
      vertex -40.6582 0.986063 -2
    endloop
  endfacet
  facet normal -0.142303 0.989823 0
    outer loop
      vertex -37.3 -3.39276 -2
      vertex -37.7981 -3.46437 2
      vertex -37.3 -3.39276 2
    endloop
  endfacet
  facet normal -0.142303 0.989823 0
    outer loop
      vertex -37.7981 -3.46437 2
      vertex -37.3 -3.39276 -2
      vertex -37.7981 -3.46437 -2
    endloop
  endfacet
  facet normal -0.142303 -0.989823 0
    outer loop
      vertex -37.7981 3.46437 -2
      vertex -37.3 3.39276 2
      vertex -37.7981 3.46437 2
    endloop
  endfacet
  facet normal -0.142303 -0.989823 -0
    outer loop
      vertex -37.3 3.39276 2
      vertex -37.7981 3.46437 -2
      vertex -37.3 3.39276 -2
    endloop
  endfacet
  facet normal 0.841256 0.540637 0
    outer loop
      vertex -39.592 -2.64512 2
      vertex -40.6582 -0.986063 -2
      vertex -40.6582 -0.986063 2
    endloop
  endfacet
  facet normal 0.841256 0.540637 0
    outer loop
      vertex -40.6582 -0.986063 -2
      vertex -39.592 -2.64512 2
      vertex -39.592 -2.64512 -2
    endloop
  endfacet
  facet normal 0.415416 0.909631 -0
    outer loop
      vertex -37.7981 -3.46437 -2
      vertex -39.592 -2.64512 2
      vertex -37.7981 -3.46437 2
    endloop
  endfacet
  facet normal 0.415416 0.909631 0
    outer loop
      vertex -39.592 -2.64512 2
      vertex -37.7981 -3.46437 -2
      vertex -39.592 -2.64512 -2
    endloop
  endfacet
  facet normal 1 -0 0
    outer loop
      vertex -37.3 -3.5 2
      vertex -37.3 -3.39276 -2
      vertex -37.3 -3.39276 2
    endloop
  endfacet
  facet normal 1 0 0
    outer loop
      vertex -37.3 -3.39276 -2
      vertex -37.3 -3.5 2
      vertex -37.3 -3.5 -2
    endloop
  endfacet
  facet normal 1 -0 0
    outer loop
      vertex -37.3 3.39276 2
      vertex -37.3 3.5 -2
      vertex -37.3 3.5 2
    endloop
  endfacet
  facet normal 1 0 0
    outer loop
      vertex -37.3 3.5 -2
      vertex -37.3 3.39276 2
      vertex -37.3 3.39276 -2
    endloop
  endfacet
  facet normal -1 0 0
    outer loop
      vertex 37.3 -3.5 -2
      vertex 37.3 -3.39276 2
      vertex 37.3 -3.39276 -2
    endloop
  endfacet
  facet normal -1 -0 0
    outer loop
      vertex 37.3 -3.39276 2
      vertex 37.3 -3.5 -2
      vertex 37.3 -3.5 2
    endloop
  endfacet
  facet normal -1 0 0
    outer loop
      vertex 37.3 3.39276 -2
      vertex 37.3 3.5 2
      vertex 37.3 3.5 -2
    endloop
  endfacet
  facet normal -1 -0 0
    outer loop
      vertex 37.3 3.5 2
      vertex 37.3 3.39276 -2
      vertex 37.3 3.39276 2
    endloop
  endfacet
  facet normal 0 1 -0
    outer loop
      vertex 37.3 -3.5 -2
      vertex -37.3 -3.5 2
      vertex 37.3 -3.5 2
    endloop
  endfacet
  facet normal 0 1 0
    outer loop
      vertex -37.3 -3.5 2
      vertex 37.3 -3.5 -2
      vertex -37.3 -3.5 -2
    endloop
  endfacet
  facet normal 0 -1 0
    outer loop
      vertex -37.3 3.5 -2
      vertex 37.3 3.5 2
      vertex -37.3 3.5 2
    endloop
  endfacet
  facet normal 0 -1 -0
    outer loop
      vertex 37.3 3.5 2
      vertex -37.3 3.5 -2
      vertex 37.3 3.5 -2
    endloop
  endfacet
  facet normal -1 0 0
    outer loop
      vertex -50 -12.7 -2
      vertex -50 4.7 2
      vertex -50 4.7 -2
    endloop
  endfacet
  facet normal -1 -0 0
    outer loop
      vertex -50 4.7 2
      vertex -50 -12.7 -2
      vertex -50 -12.7 2
    endloop
  endfacet
  facet normal 0 0 1
    outer loop
      vertex -37.3 -3.39276 2
      vertex -37.7981 -3.46437 2
      vertex -37.3 -3.5 2
    endloop
  endfacet
  facet normal 0 0 1
    outer loop
      vertex 50 12.7 2
      vertex 40.8 0 2
      vertex 50 -12.7 2
    endloop
  endfacet
  facet normal 0 0 1
    outer loop
      vertex 50 12.7 2
      vertex 40.2444 1.89224 2
      vertex 40.8 0 2
    endloop
  endfacet
  facet normal 0 0 1
    outer loop
      vertex 50 12.7 2
      vertex 38.754 3.18371 2
      vertex 40.2444 1.89224 2
    endloop
  endfacet
  facet normal 0 0 1
    outer loop
      vertex 50 12.7 2
      vertex 37.3 3.5 2
      vertex 38.754 3.18371 2
    endloop
  endfacet
  facet normal -0 0 1
    outer loop
      vertex -47.0352 12.7 2
      vertex 37.3 3.5 2
      vertex 50 12.7 2
    endloop
  endfacet
  facet normal 0 0 1
    outer loop
      vertex -37.3 3.5 2
      vertex -37.7981 3.46437 2
      vertex -37.3 3.39276 2
    endloop
  endfacet
  facet normal 0 0 1
    outer loop
      vertex 37.3 3.5 2
      vertex -47.0352 12.7 2
      vertex -37.3 3.5 2
    endloop
  endfacet
  facet normal 0 0 1
    outer loop
      vertex -39.592 2.64512 2
      vertex -47.0352 4.7 2
      vertex -40.6582 0.986063 2
    endloop
  endfacet
  facet normal -0 0 1
    outer loop
      vertex -47.0352 4.7 2
      vertex -39.592 2.64512 2
      vertex -47.0352 12.7 2
    endloop
  endfacet
  facet normal 0 0 1
    outer loop
      vertex -37.7981 3.46437 2
      vertex -47.0352 12.7 2
      vertex -39.592 2.64512 2
    endloop
  endfacet
  facet normal 0 0 1
    outer loop
      vertex -37.3 3.5 2
      vertex -47.0352 12.7 2
      vertex -37.7981 3.46437 2
    endloop
  endfacet
  facet normal -0 0 1
    outer loop
      vertex 40.2444 -1.89224 2
      vertex 50 -12.7 2
      vertex 40.8 0 2
    endloop
  endfacet
  facet normal -0 0 1
    outer loop
      vertex 38.754 -3.18371 2
      vertex 50 -12.7 2
      vertex 40.2444 -1.89224 2
    endloop
  endfacet
  facet normal 0 0 1
    outer loop
      vertex 37.3 -3.5 2
      vertex 38.754 -3.18371 2
      vertex 37.3 -3.39276 2
    endloop
  endfacet
  facet normal 0 0 1
    outer loop
      vertex 38.754 -3.18371 2
      vertex 37.3 -3.5 2
      vertex 50 -12.7 2
    endloop
  endfacet
  facet normal -0 0 1
    outer loop
      vertex -37.3 -3.5 2
      vertex 50 -12.7 2
      vertex 37.3 -3.5 2
    endloop
  endfacet
  facet normal 0 0 1
    outer loop
      vertex -50 -12.7 2
      vertex -37.3 -3.5 2
      vertex -37.7981 -3.46437 2
    endloop
  endfacet
  facet normal 0 0 1
    outer loop
      vertex -40.6582 0.986063 2
      vertex -47.0352 4.7 2
      vertex -40.6582 -0.986063 2
    endloop
  endfacet
  facet normal -0 0 1
    outer loop
      vertex -50 4.7 2
      vertex -40.6582 -0.986063 2
      vertex -47.0352 4.7 2
    endloop
  endfacet
  facet normal 0 0 1
    outer loop
      vertex -40.6582 -0.986063 2
      vertex -50 4.7 2
      vertex -50 -12.7 2
    endloop
  endfacet
  facet normal 0 0 1
    outer loop
      vertex -37.3 -3.5 2
      vertex -50 -12.7 2
      vertex 50 -12.7 2
    endloop
  endfacet
  facet normal 0 0 1
    outer loop
      vertex -39.592 -2.64512 2
      vertex -50 -12.7 2
      vertex -37.7981 -3.46437 2
    endloop
  endfacet
  facet normal 0 0 1
    outer loop
      vertex -40.6582 -0.986063 2
      vertex -50 -12.7 2
      vertex -39.592 -2.64512 2
    endloop
  endfacet
  facet normal 0 0 1
    outer loop
      vertex 38.754 3.18371 2
      vertex 37.3 3.5 2
      vertex 37.3 3.39276 2
    endloop
  endfacet
  facet normal 1 -0 0
    outer loop
      vertex 50 -12.7 2
      vertex 50 12.7 -2
      vertex 50 12.7 2
    endloop
  endfacet
  facet normal 1 0 0
    outer loop
      vertex 50 12.7 -2
      vertex 50 -12.7 2
      vertex 50 -12.7 -2
    endloop
  endfacet
  facet normal 0 1 0
    outer loop
      vertex 50 12.7 2
      vertex -46.825 12.7 0
      vertex -47.0352 12.7 2
    endloop
  endfacet
  facet normal 0 1 -0
    outer loop
      vertex 50 12.7 -2
      vertex -46.825 12.7 0
      vertex 50 12.7 2
    endloop
  endfacet
  facet normal 0 1 0
    outer loop
      vertex -46.825 12.7 0
      vertex 50 12.7 -2
      vertex -47.0352 12.7 -2
    endloop
  endfacet
  facet normal 0 0 -1
    outer loop
      vertex -37.3 3.39276 -2
      vertex -37.7981 3.46437 -2
      vertex -37.3 3.5 -2
    endloop
  endfacet
  facet normal 0 0 -1
    outer loop
      vertex 50 -12.7 -2
      vertex 40.8 0 -2
      vertex 50 12.7 -2
    endloop
  endfacet
  facet normal 0 0 -1
    outer loop
      vertex 50 -12.7 -2
      vertex 40.2444 -1.89224 -2
      vertex 40.8 0 -2
    endloop
  endfacet
  facet normal 0 0 -1
    outer loop
      vertex 50 -12.7 -2
      vertex 38.754 -3.18371 -2
      vertex 40.2444 -1.89224 -2
    endloop
  endfacet
  facet normal 0 0 -1
    outer loop
      vertex 50 -12.7 -2
      vertex 37.3 -3.5 -2
      vertex 38.754 -3.18371 -2
    endloop
  endfacet
  facet normal 0 0 -1
    outer loop
      vertex 50 -12.7 -2
      vertex -37.3 -3.5 -2
      vertex 37.3 -3.5 -2
    endloop
  endfacet
  facet normal 0 0 -1
    outer loop
      vertex -37.3 -3.5 -2
      vertex -37.7981 -3.46437 -2
      vertex -37.3 -3.39276 -2
    endloop
  endfacet
  facet normal 0 0 -1
    outer loop
      vertex -50 -12.7 -2
      vertex -37.3 -3.5 -2
      vertex 50 -12.7 -2
    endloop
  endfacet
  facet normal 0 0 -1
    outer loop
      vertex -40.6582 -0.986063 -2
      vertex -47.0352 4.7 -2
      vertex -40.6582 0.986063 -2
    endloop
  endfacet
  facet normal 0 0 -1
    outer loop
      vertex -50 -12.7 -2
      vertex -40.6582 -0.986063 -2
      vertex -39.592 -2.64512 -2
    endloop
  endfacet
  facet normal -0 0 -1
    outer loop
      vertex -37.3 -3.5 -2
      vertex -50 -12.7 -2
      vertex -37.7981 -3.46437 -2
    endloop
  endfacet
  facet normal 0 0 -1
    outer loop
      vertex -50 -12.7 -2
      vertex -39.592 -2.64512 -2
      vertex -37.7981 -3.46437 -2
    endloop
  endfacet
  facet normal 0 0 -1
    outer loop
      vertex -50 4.7 -2
      vertex -40.6582 -0.986063 -2
      vertex -50 -12.7 -2
    endloop
  endfacet
  facet normal 0 0 -1
    outer loop
      vertex -40.6582 -0.986063 -2
      vertex -50 4.7 -2
      vertex -47.0352 4.7 -2
    endloop
  endfacet
  facet normal 0 0 -1
    outer loop
      vertex 40.2444 1.89224 -2
      vertex 50 12.7 -2
      vertex 40.8 0 -2
    endloop
  endfacet
  facet normal 0 0 -1
    outer loop
      vertex 38.754 3.18371 -2
      vertex 50 12.7 -2
      vertex 40.2444 1.89224 -2
    endloop
  endfacet
  facet normal 0 0 -1
    outer loop
      vertex 37.3 3.5 -2
      vertex 38.754 3.18371 -2
      vertex 37.3 3.39276 -2
    endloop
  endfacet
  facet normal 0 0 -1
    outer loop
      vertex 38.754 3.18371 -2
      vertex 37.3 3.5 -2
      vertex 50 12.7 -2
    endloop
  endfacet
  facet normal 0 0 -1
    outer loop
      vertex -47.0352 12.7 -2
      vertex 37.3 3.5 -2
      vertex -37.3 3.5 -2
    endloop
  endfacet
  facet normal 0 0 -1
    outer loop
      vertex -47.0352 12.7 -2
      vertex -37.3 3.5 -2
      vertex -37.7981 3.46437 -2
    endloop
  endfacet
  facet normal 0 0 -1
    outer loop
      vertex -47.0352 4.7 -2
      vertex -39.592 2.64512 -2
      vertex -40.6582 0.986063 -2
    endloop
  endfacet
  facet normal 0 0 -1
    outer loop
      vertex -47.0352 12.7 -2
      vertex -39.592 2.64512 -2
      vertex -47.0352 4.7 -2
    endloop
  endfacet
  facet normal 0 0 -1
    outer loop
      vertex -39.592 2.64512 -2
      vertex -47.0352 12.7 -2
      vertex -37.7981 3.46437 -2
    endloop
  endfacet
  facet normal 0 0 -1
    outer loop
      vertex 37.3 3.5 -2
      vertex -47.0352 12.7 -2
      vertex 50 12.7 -2
    endloop
  endfacet
  facet normal 0 0 -1
    outer loop
      vertex 38.754 -3.18371 -2
      vertex 37.3 -3.5 -2
      vertex 37.3 -3.39276 -2
    endloop
  endfacet
  facet normal 0 -1 0
    outer loop
      vertex -50 -12.7 -2
      vertex 50 -12.7 2
      vertex -50 -12.7 2
    endloop
  endfacet
  facet normal 0 -1 -0
    outer loop
      vertex 50 -12.7 2
      vertex -50 -12.7 -2
      vertex 50 -12.7 -2
    endloop
  endfacet
  facet normal -0.98982 0 -0.142328
    outer loop
      vertex -52.675 4.7 0
      vertex -52.9525 8.7 1.92987
      vertex -52.675 8.7 0
    endloop
  endfacet
  facet normal -0.98982 -0 -0.142328
    outer loop
      vertex -52.9525 8.7 1.92987
      vertex -52.675 4.7 0
      vertex -52.9525 4.7 1.92987
    endloop
  endfacet
  facet normal 0.98982 0 -0.142328
    outer loop
      vertex -66.0975 4.7 1.92987
      vertex -66.375 8.7 0
      vertex -66.0975 8.7 1.92987
    endloop
  endfacet
  facet normal 0.98982 0 -0.142328
    outer loop
      vertex -66.375 8.7 0
      vertex -66.0975 4.7 1.92987
      vertex -66.375 4.7 0
    endloop
  endfacet
  facet normal 0 0 -1
    outer loop
      vertex -60.4999 4.7 6.78028
      vertex -58.5501 8.7 6.78028
      vertex -58.5501 4.7 6.78028
    endloop
  endfacet
  facet normal -0 0 -1
    outer loop
      vertex -58.5501 8.7 6.78028
      vertex -60.4999 4.7 6.78028
      vertex -60.4999 8.7 6.78028
    endloop
  endfacet
  facet normal -0 0 1
    outer loop
      vertex -60.4999 8.7 -6.78028
      vertex -58.5501 4.7 -6.78028
      vertex -58.5501 8.7 -6.78028
    endloop
  endfacet
  facet normal 0 0 1
    outer loop
      vertex -58.5501 4.7 -6.78028
      vertex -60.4999 8.7 -6.78028
      vertex -60.4999 4.7 -6.78028
    endloop
  endfacet
  facet normal -0.281739 0 0.959491
    outer loop
      vertex -58.5501 8.7 -6.78028
      vertex -56.6794 4.7 -6.23098
      vertex -56.6794 8.7 -6.23098
    endloop
  endfacet
  facet normal -0.281739 0 0.959491
    outer loop
      vertex -56.6794 4.7 -6.23098
      vertex -58.5501 8.7 -6.78028
      vertex -58.5501 4.7 -6.78028
    endloop
  endfacet
  facet normal -0.540644 0 -0.841252
    outer loop
      vertex -56.6794 4.7 6.23098
      vertex -55.0392 8.7 5.17688
      vertex -55.0392 4.7 5.17688
    endloop
  endfacet
  facet normal -0.540644 0 -0.841252
    outer loop
      vertex -55.0392 8.7 5.17688
      vertex -56.6794 4.7 6.23098
      vertex -56.6794 8.7 6.23098
    endloop
  endfacet
  facet normal -0.90964 0 -0.415398
    outer loop
      vertex -52.9525 4.7 1.92987
      vertex -53.7624 8.7 3.70339
      vertex -52.9525 8.7 1.92987
    endloop
  endfacet
  facet normal -0.90964 -0 -0.415398
    outer loop
      vertex -53.7624 8.7 3.70339
      vertex -52.9525 4.7 1.92987
      vertex -53.7624 4.7 3.70339
    endloop
  endfacet
  facet normal -0.281739 0 -0.959491
    outer loop
      vertex -58.5501 4.7 6.78028
      vertex -56.6794 8.7 6.23098
      vertex -56.6794 4.7 6.23098
    endloop
  endfacet
  facet normal -0.281739 0 -0.959491
    outer loop
      vertex -56.6794 8.7 6.23098
      vertex -58.5501 4.7 6.78028
      vertex -58.5501 8.7 6.78028
    endloop
  endfacet
  facet normal 0.755746 0 -0.654865
    outer loop
      vertex -64.0108 4.7 5.17688
      vertex -65.2876 8.7 3.70339
      vertex -64.0108 8.7 5.17688
    endloop
  endfacet
  facet normal 0.755746 0 -0.654865
    outer loop
      vertex -65.2876 8.7 3.70339
      vertex -64.0108 4.7 5.17688
      vertex -65.2876 4.7 3.70339
    endloop
  endfacet
  facet normal 0.90964 0 -0.415398
    outer loop
      vertex -65.2876 4.7 3.70339
      vertex -66.0975 8.7 1.92987
      vertex -65.2876 8.7 3.70339
    endloop
  endfacet
  facet normal 0.90964 0 -0.415398
    outer loop
      vertex -66.0975 8.7 1.92987
      vertex -65.2876 4.7 3.70339
      vertex -66.0975 4.7 1.92987
    endloop
  endfacet
  facet normal 0.281739 0 -0.959491
    outer loop
      vertex -62.3706 4.7 6.23098
      vertex -60.4999 8.7 6.78028
      vertex -60.4999 4.7 6.78028
    endloop
  endfacet
  facet normal 0.281739 0 -0.959491
    outer loop
      vertex -60.4999 8.7 6.78028
      vertex -62.3706 4.7 6.23098
      vertex -62.3706 8.7 6.23098
    endloop
  endfacet
  facet normal 0.755746 -0 0.654865
    outer loop
      vertex -65.2876 4.7 -3.70339
      vertex -64.0108 8.7 -5.17688
      vertex -65.2876 8.7 -3.70339
    endloop
  endfacet
  facet normal 0.755746 0 0.654865
    outer loop
      vertex -64.0108 8.7 -5.17688
      vertex -65.2876 4.7 -3.70339
      vertex -64.0108 4.7 -5.17688
    endloop
  endfacet
  facet normal -0.755746 0 -0.654865
    outer loop
      vertex -53.7624 4.7 3.70339
      vertex -55.0392 8.7 5.17688
      vertex -53.7624 8.7 3.70339
    endloop
  endfacet
  facet normal -0.755746 -0 -0.654865
    outer loop
      vertex -55.0392 8.7 5.17688
      vertex -53.7624 4.7 3.70339
      vertex -55.0392 4.7 5.17688
    endloop
  endfacet
  facet normal 0.540644 0 -0.841252
    outer loop
      vertex -64.0108 4.7 5.17688
      vertex -62.3706 8.7 6.23098
      vertex -62.3706 4.7 6.23098
    endloop
  endfacet
  facet normal 0.540644 0 -0.841252
    outer loop
      vertex -62.3706 8.7 6.23098
      vertex -64.0108 4.7 5.17688
      vertex -64.0108 8.7 5.17688
    endloop
  endfacet
  facet normal -0.90964 0 0.415398
    outer loop
      vertex -53.7624 4.7 -3.70339
      vertex -52.9525 8.7 -1.92987
      vertex -53.7624 8.7 -3.70339
    endloop
  endfacet
  facet normal -0.90964 0 0.415398
    outer loop
      vertex -52.9525 8.7 -1.92987
      vertex -53.7624 4.7 -3.70339
      vertex -52.9525 4.7 -1.92987
    endloop
  endfacet
  facet normal 0 -1 0
    outer loop
      vertex -60.0231 8.7 3.46437
      vertex -60.4999 8.7 6.78028
      vertex -62.3706 8.7 6.23098
    endloop
  endfacet
  facet normal 0 -1 0
    outer loop
      vertex -60.4999 8.7 6.78028
      vertex -60.0231 8.7 3.46437
      vertex -58.5501 8.7 6.78028
    endloop
  endfacet
  facet normal 0 -1 0
    outer loop
      vertex -61.817 8.7 2.64512
      vertex -62.3706 8.7 6.23098
      vertex -64.0108 8.7 5.17688
    endloop
  endfacet
  facet normal 0 -1 0
    outer loop
      vertex -58.071 8.7 3.18371
      vertex -58.5501 8.7 6.78028
      vertex -60.0231 8.7 3.46437
    endloop
  endfacet
  facet normal 0 -1 0
    outer loop
      vertex -61.817 8.7 2.64512
      vertex -64.0108 8.7 5.17688
      vertex -65.2876 8.7 3.70339
    endloop
  endfacet
  facet normal 0 -1 0
    outer loop
      vertex -58.5501 8.7 6.78028
      vertex -58.071 8.7 3.18371
      vertex -56.6794 8.7 6.23098
    endloop
  endfacet
  facet normal 0 -1 -0
    outer loop
      vertex -56.6794 8.7 6.23098
      vertex -58.071 8.7 3.18371
      vertex -55.0392 8.7 5.17688
    endloop
  endfacet
  facet normal 0 -1 0
    outer loop
      vertex -62.3706 8.7 6.23098
      vertex -61.817 8.7 2.64512
      vertex -60.0231 8.7 3.46437
    endloop
  endfacet
  facet normal 0 -1 0
    outer loop
      vertex -62.8832 8.7 0.986063
      vertex -65.2876 8.7 3.70339
      vertex -66.0975 8.7 1.92987
    endloop
  endfacet
  facet normal 0 -1 0
    outer loop
      vertex -65.2876 8.7 3.70339
      vertex -62.8832 8.7 0.986063
      vertex -61.817 8.7 2.64512
    endloop
  endfacet
  facet normal 0 -1 0
    outer loop
      vertex -66.375 8.7 0
      vertex -62.8832 8.7 0.986063
      vertex -66.0975 8.7 1.92987
    endloop
  endfacet
  facet normal 0 -1 0
    outer loop
      vertex -66.375 8.7 0
      vertex -62.8832 8.7 -0.986063
      vertex -62.8832 8.7 0.986063
    endloop
  endfacet
  facet normal 0 -1 0
    outer loop
      vertex -66.0975 8.7 -1.92987
      vertex -62.8832 8.7 -0.986063
      vertex -66.375 8.7 0
    endloop
  endfacet
  facet normal 0 -1 0
    outer loop
      vertex -65.2876 8.7 -3.70339
      vertex -62.8832 8.7 -0.986063
      vertex -66.0975 8.7 -1.92987
    endloop
  endfacet
  facet normal 0 -1 -0
    outer loop
      vertex -62.8832 8.7 -0.986063
      vertex -65.2876 8.7 -3.70339
      vertex -61.817 8.7 -2.64512
    endloop
  endfacet
  facet normal 0 -1 0
    outer loop
      vertex -64.0108 8.7 -5.17688
      vertex -61.817 8.7 -2.64512
      vertex -65.2876 8.7 -3.70339
    endloop
  endfacet
  facet normal 0 -1 0
    outer loop
      vertex -56.5806 8.7 1.89224
      vertex -55.0392 8.7 5.17688
      vertex -58.071 8.7 3.18371
    endloop
  endfacet
  facet normal 0 -1 -0
    outer loop
      vertex -55.0392 8.7 5.17688
      vertex -56.5806 8.7 1.89224
      vertex -53.7624 8.7 3.70339
    endloop
  endfacet
  facet normal 0 -1 -0
    outer loop
      vertex -53.7624 8.7 3.70339
      vertex -56.5806 8.7 1.89224
      vertex -52.9525 8.7 1.92987
    endloop
  endfacet
  facet normal 0 -1 0
    outer loop
      vertex -56.025 8.7 0
      vertex -52.9525 8.7 1.92987
      vertex -56.5806 8.7 1.89224
    endloop
  endfacet
  facet normal 0 -1 0
    outer loop
      vertex -56.025 8.7 0
      vertex -52.675 8.7 0
      vertex -52.9525 8.7 1.92987
    endloop
  endfacet
  facet normal 0 -1 0
    outer loop
      vertex -52.9525 8.7 -1.92987
      vertex -56.025 8.7 0
      vertex -56.5806 8.7 -1.89224
    endloop
  endfacet
  facet normal 0 -1 0
    outer loop
      vertex -56.025 8.7 0
      vertex -52.9525 8.7 -1.92987
      vertex -52.675 8.7 0
    endloop
  endfacet
  facet normal 0 -1 0
    outer loop
      vertex -55.0392 8.7 -5.17688
      vertex -56.5806 8.7 -1.89224
      vertex -58.071 8.7 -3.18371
    endloop
  endfacet
  facet normal 0 -1 0
    outer loop
      vertex -56.5806 8.7 -1.89224
      vertex -53.7624 8.7 -3.70339
      vertex -52.9525 8.7 -1.92987
    endloop
  endfacet
  facet normal 0 -1 0
    outer loop
      vertex -58.5501 8.7 -6.78028
      vertex -58.071 8.7 -3.18371
      vertex -60.0231 8.7 -3.46437
    endloop
  endfacet
  facet normal 0 -1 0
    outer loop
      vertex -62.3706 8.7 -6.23098
      vertex -61.817 8.7 -2.64512
      vertex -64.0108 8.7 -5.17688
    endloop
  endfacet
  facet normal 0 -1 -0
    outer loop
      vertex -61.817 8.7 -2.64512
      vertex -62.3706 8.7 -6.23098
      vertex -60.0231 8.7 -3.46437
    endloop
  endfacet
  facet normal 0 -1 0
    outer loop
      vertex -56.5806 8.7 -1.89224
      vertex -55.0392 8.7 -5.17688
      vertex -53.7624 8.7 -3.70339
    endloop
  endfacet
  facet normal 0 -1 0
    outer loop
      vertex -60.4999 8.7 -6.78028
      vertex -60.0231 8.7 -3.46437
      vertex -62.3706 8.7 -6.23098
    endloop
  endfacet
  facet normal 0 -1 0
    outer loop
      vertex -58.071 8.7 -3.18371
      vertex -56.6794 8.7 -6.23098
      vertex -55.0392 8.7 -5.17688
    endloop
  endfacet
  facet normal 0 -1 0
    outer loop
      vertex -58.5501 8.7 -6.78028
      vertex -60.0231 8.7 -3.46437
      vertex -60.4999 8.7 -6.78028
    endloop
  endfacet
  facet normal 0 -1 -0
    outer loop
      vertex -58.071 8.7 -3.18371
      vertex -58.5501 8.7 -6.78028
      vertex -56.6794 8.7 -6.23098
    endloop
  endfacet
  facet normal -0.540644 0 0.841252
    outer loop
      vertex -56.6794 8.7 -6.23098
      vertex -55.0392 4.7 -5.17688
      vertex -55.0392 8.7 -5.17688
    endloop
  endfacet
  facet normal -0.540644 0 0.841252
    outer loop
      vertex -55.0392 4.7 -5.17688
      vertex -56.6794 8.7 -6.23098
      vertex -56.6794 4.7 -6.23098
    endloop
  endfacet
  facet normal -0.98982 0 0.142328
    outer loop
      vertex -52.9525 4.7 -1.92987
      vertex -52.675 8.7 0
      vertex -52.9525 8.7 -1.92987
    endloop
  endfacet
  facet normal -0.98982 0 0.142328
    outer loop
      vertex -52.675 8.7 0
      vertex -52.9525 4.7 -1.92987
      vertex -52.675 4.7 0
    endloop
  endfacet
  facet normal 0.281739 0 0.959491
    outer loop
      vertex -62.3706 8.7 -6.23098
      vertex -60.4999 4.7 -6.78028
      vertex -60.4999 8.7 -6.78028
    endloop
  endfacet
  facet normal 0.281739 0 0.959491
    outer loop
      vertex -60.4999 4.7 -6.78028
      vertex -62.3706 8.7 -6.23098
      vertex -62.3706 4.7 -6.23098
    endloop
  endfacet
  facet normal 0.90964 -0 0.415398
    outer loop
      vertex -66.0975 4.7 -1.92987
      vertex -65.2876 8.7 -3.70339
      vertex -66.0975 8.7 -1.92987
    endloop
  endfacet
  facet normal 0.90964 0 0.415398
    outer loop
      vertex -65.2876 8.7 -3.70339
      vertex -66.0975 4.7 -1.92987
      vertex -65.2876 4.7 -3.70339
    endloop
  endfacet
  facet normal 0.98982 -0 0.142328
    outer loop
      vertex -66.375 4.7 0
      vertex -66.0975 8.7 -1.92987
      vertex -66.375 8.7 0
    endloop
  endfacet
  facet normal 0.98982 0 0.142328
    outer loop
      vertex -66.0975 8.7 -1.92987
      vertex -66.375 4.7 0
      vertex -66.0975 4.7 -1.92987
    endloop
  endfacet
  facet normal -0.755746 0 0.654865
    outer loop
      vertex -55.0392 4.7 -5.17688
      vertex -53.7624 8.7 -3.70339
      vertex -55.0392 8.7 -5.17688
    endloop
  endfacet
  facet normal -0.755746 0 0.654865
    outer loop
      vertex -53.7624 8.7 -3.70339
      vertex -55.0392 4.7 -5.17688
      vertex -53.7624 4.7 -3.70339
    endloop
  endfacet
  facet normal 0.540644 0 0.841252
    outer loop
      vertex -64.0108 8.7 -5.17688
      vertex -62.3706 4.7 -6.23098
      vertex -62.3706 8.7 -6.23098
    endloop
  endfacet
  facet normal 0.540644 0 0.841252
    outer loop
      vertex -62.3706 4.7 -6.23098
      vertex -64.0108 8.7 -5.17688
      vertex -64.0108 4.7 -5.17688
    endloop
  endfacet
  facet normal -0.959495 0 -0.281727
    outer loop
      vertex -56.025 8.7 0
      vertex -56.5806 12.7 1.89224
      vertex -56.025 12.7 0
    endloop
  endfacet
  facet normal -0.959495 -0 -0.281727
    outer loop
      vertex -56.5806 12.7 1.89224
      vertex -56.025 8.7 0
      vertex -56.5806 8.7 1.89224
    endloop
  endfacet
  facet normal 1 -0 0
    outer loop
      vertex -62.8832 8.7 0.986063
      vertex -62.8832 12.7 -0.986063
      vertex -62.8832 12.7 0.986063
    endloop
  endfacet
  facet normal 1 0 0
    outer loop
      vertex -62.8832 12.7 -0.986063
      vertex -62.8832 8.7 0.986063
      vertex -62.8832 8.7 -0.986063
    endloop
  endfacet
  facet normal 0.415416 0 -0.909631
    outer loop
      vertex -61.817 8.7 2.64512
      vertex -60.0231 12.7 3.46437
      vertex -60.0231 8.7 3.46437
    endloop
  endfacet
  facet normal 0.415416 0 -0.909631
    outer loop
      vertex -60.0231 12.7 3.46437
      vertex -61.817 8.7 2.64512
      vertex -61.817 12.7 2.64512
    endloop
  endfacet
  facet normal 0.841256 0 -0.540637
    outer loop
      vertex -61.817 8.7 2.64512
      vertex -62.8832 12.7 0.986063
      vertex -61.817 12.7 2.64512
    endloop
  endfacet
  facet normal 0.841256 0 -0.540637
    outer loop
      vertex -62.8832 12.7 0.986063
      vertex -61.817 8.7 2.64512
      vertex -62.8832 8.7 0.986063
    endloop
  endfacet
  facet normal -0.14231 0 0.989822
    outer loop
      vertex -60.0231 12.7 -3.46437
      vertex -58.071 8.7 -3.18371
      vertex -58.071 12.7 -3.18371
    endloop
  endfacet
  facet normal -0.14231 0 0.989822
    outer loop
      vertex -58.071 8.7 -3.18371
      vertex -60.0231 12.7 -3.46437
      vertex -60.0231 8.7 -3.46437
    endloop
  endfacet
  facet normal -0.65487 0 0.755742
    outer loop
      vertex -58.071 12.7 -3.18371
      vertex -56.5806 8.7 -1.89224
      vertex -56.5806 12.7 -1.89224
    endloop
  endfacet
  facet normal -0.65487 0 0.755742
    outer loop
      vertex -56.5806 8.7 -1.89224
      vertex -58.071 12.7 -3.18371
      vertex -58.071 8.7 -3.18371
    endloop
  endfacet
  facet normal -0.14231 0 -0.989822
    outer loop
      vertex -60.0231 8.7 3.46437
      vertex -58.071 12.7 3.18371
      vertex -58.071 8.7 3.18371
    endloop
  endfacet
  facet normal -0.14231 0 -0.989822
    outer loop
      vertex -58.071 12.7 3.18371
      vertex -60.0231 8.7 3.46437
      vertex -60.0231 12.7 3.46437
    endloop
  endfacet
  facet normal -0.65487 0 -0.755742
    outer loop
      vertex -58.071 8.7 3.18371
      vertex -56.5806 12.7 1.89224
      vertex -56.5806 8.7 1.89224
    endloop
  endfacet
  facet normal -0.65487 0 -0.755742
    outer loop
      vertex -56.5806 12.7 1.89224
      vertex -58.071 8.7 3.18371
      vertex -58.071 12.7 3.18371
    endloop
  endfacet
  facet normal -0.959495 0 0.281727
    outer loop
      vertex -56.5806 8.7 -1.89224
      vertex -56.025 12.7 0
      vertex -56.5806 12.7 -1.89224
    endloop
  endfacet
  facet normal -0.959495 0 0.281727
    outer loop
      vertex -56.025 12.7 0
      vertex -56.5806 8.7 -1.89224
      vertex -56.025 8.7 0
    endloop
  endfacet
  facet normal 0.841256 -0 0.540637
    outer loop
      vertex -62.8832 8.7 -0.986063
      vertex -61.817 12.7 -2.64512
      vertex -62.8832 12.7 -0.986063
    endloop
  endfacet
  facet normal 0.841256 0 0.540637
    outer loop
      vertex -61.817 12.7 -2.64512
      vertex -62.8832 8.7 -0.986063
      vertex -61.817 8.7 -2.64512
    endloop
  endfacet
  facet normal 0.415416 0 0.909631
    outer loop
      vertex -61.817 12.7 -2.64512
      vertex -60.0231 8.7 -3.46437
      vertex -60.0231 12.7 -3.46437
    endloop
  endfacet
  facet normal 0.415416 0 0.909631
    outer loop
      vertex -60.0231 8.7 -3.46437
      vertex -61.817 12.7 -2.64512
      vertex -61.817 8.7 -2.64512
    endloop
  endfacet
  facet normal 0.994525 -0 0.104502
    outer loop
      vertex -47.1025 4.7 2.64048
      vertex -47.0352 12.7 2
      vertex -47.1025 12.7 2.64048
    endloop
  endfacet
  facet normal 0.994525 0 0.104502
    outer loop
      vertex -47.0352 12.7 2
      vertex -47.1025 4.7 2.64048
      vertex -47.0352 4.7 2
    endloop
  endfacet
  facet normal 0 -1 0
    outer loop
      vertex -47.0352 12.7 2
      vertex -46.825 12.7 0
      vertex -47.1025 12.7 2.64048
    endloop
  endfacet
  facet normal -0.994523 0 0.104519
    outer loop
      vertex -72.225 4.7 0
      vertex -71.9475 12.7 2.64048
      vertex -72.225 12.7 0
    endloop
  endfacet
  facet normal -0.994523 0 0.104519
    outer loop
      vertex -71.9475 12.7 2.64048
      vertex -72.225 4.7 0
      vertex -71.9475 4.7 2.64048
    endloop
  endfacet
  facet normal -0 0 1
    outer loop
      vertex -60.8525 12.7 12.6304
      vertex -58.1975 4.7 12.6304
      vertex -58.1975 12.7 12.6304
    endloop
  endfacet
  facet normal 0 0 1
    outer loop
      vertex -58.1975 4.7 12.6304
      vertex -60.8525 12.7 12.6304
      vertex -60.8525 4.7 12.6304
    endloop
  endfacet
  facet normal 0 0 -1
    outer loop
      vertex -60.8525 4.7 -12.6304
      vertex -58.1975 12.7 -12.6304
      vertex -58.1975 4.7 -12.6304
    endloop
  endfacet
  facet normal -0 0 -1
    outer loop
      vertex -58.1975 12.7 -12.6304
      vertex -60.8525 4.7 -12.6304
      vertex -60.8525 12.7 -12.6304
    endloop
  endfacet
  facet normal 0.743156 -0 0.669118
    outer loop
      vertex -51.027 4.7 9.43794
      vertex -49.2505 12.7 7.46487
      vertex -51.027 12.7 9.43794
    endloop
  endfacet
  facet normal 0.743156 0 0.669118
    outer loop
      vertex -49.2505 12.7 7.46487
      vertex -51.027 4.7 9.43794
      vertex -49.2505 4.7 7.46487
    endloop
  endfacet
  facet normal 0.951051 -0 0.309035
    outer loop
      vertex -47.923 4.7 5.16556
      vertex -47.1025 12.7 2.64048
      vertex -47.923 12.7 5.16556
    endloop
  endfacet
  facet normal 0.951051 0 0.309035
    outer loop
      vertex -47.1025 12.7 2.64048
      vertex -47.923 4.7 5.16556
      vertex -47.1025 4.7 2.64048
    endloop
  endfacet
  facet normal -0.587772 0 0.809027
    outer loop
      vertex -68.023 12.7 9.43794
      vertex -65.875 4.7 10.9985
      vertex -65.875 12.7 10.9985
    endloop
  endfacet
  facet normal -0.587772 0 0.809027
    outer loop
      vertex -65.875 4.7 10.9985
      vertex -68.023 12.7 9.43794
      vertex -68.023 4.7 9.43794
    endloop
  endfacet
  facet normal -0.207908 0 0.978148
    outer loop
      vertex -63.4495 12.7 12.0784
      vertex -60.8525 4.7 12.6304
      vertex -60.8525 12.7 12.6304
    endloop
  endfacet
  facet normal -0.207908 0 0.978148
    outer loop
      vertex -60.8525 4.7 12.6304
      vertex -63.4495 12.7 12.0784
      vertex -63.4495 4.7 12.0784
    endloop
  endfacet
  facet normal 0.866027 -0 0.499998
    outer loop
      vertex -49.2505 4.7 7.46487
      vertex -47.923 12.7 5.16556
      vertex -49.2505 12.7 7.46487
    endloop
  endfacet
  facet normal 0.866027 0 0.499998
    outer loop
      vertex -47.923 12.7 5.16556
      vertex -49.2505 4.7 7.46487
      vertex -47.923 4.7 5.16556
    endloop
  endfacet
  facet normal 0.406736 0 0.913546
    outer loop
      vertex -55.6005 12.7 12.0784
      vertex -53.175 4.7 10.9985
      vertex -53.175 12.7 10.9985
    endloop
  endfacet
  facet normal 0.406736 0 0.913546
    outer loop
      vertex -53.175 4.7 10.9985
      vertex -55.6005 12.7 12.0784
      vertex -55.6005 4.7 12.0784
    endloop
  endfacet
  facet normal 0.207908 0 0.978148
    outer loop
      vertex -58.1975 12.7 12.6304
      vertex -55.6005 4.7 12.0784
      vertex -55.6005 12.7 12.0784
    endloop
  endfacet
  facet normal 0.207908 0 0.978148
    outer loop
      vertex -55.6005 4.7 12.0784
      vertex -58.1975 12.7 12.6304
      vertex -58.1975 4.7 12.6304
    endloop
  endfacet
  facet normal 0.587772 0 0.809027
    outer loop
      vertex -53.175 12.7 10.9985
      vertex -51.027 4.7 9.43794
      vertex -51.027 12.7 9.43794
    endloop
  endfacet
  facet normal 0.587772 0 0.809027
    outer loop
      vertex -51.027 4.7 9.43794
      vertex -53.175 12.7 10.9985
      vertex -53.175 4.7 10.9985
    endloop
  endfacet
  facet normal -0.866027 0 0.499998
    outer loop
      vertex -71.127 4.7 5.16556
      vertex -69.7995 12.7 7.46487
      vertex -71.127 12.7 5.16556
    endloop
  endfacet
  facet normal -0.866027 0 0.499998
    outer loop
      vertex -69.7995 12.7 7.46487
      vertex -71.127 4.7 5.16556
      vertex -69.7995 4.7 7.46487
    endloop
  endfacet
  facet normal -0.743156 0 0.669118
    outer loop
      vertex -69.7995 4.7 7.46487
      vertex -68.023 12.7 9.43794
      vertex -69.7995 12.7 7.46487
    endloop
  endfacet
  facet normal -0.743156 0 0.669118
    outer loop
      vertex -68.023 12.7 9.43794
      vertex -69.7995 4.7 7.46487
      vertex -68.023 4.7 9.43794
    endloop
  endfacet
  facet normal -0.951051 0 0.309035
    outer loop
      vertex -71.9475 4.7 2.64048
      vertex -71.127 12.7 5.16556
      vertex -71.9475 12.7 2.64048
    endloop
  endfacet
  facet normal -0.951051 0 0.309035
    outer loop
      vertex -71.127 12.7 5.16556
      vertex -71.9475 4.7 2.64048
      vertex -71.127 4.7 5.16556
    endloop
  endfacet
  facet normal 0 -1 0
    outer loop
      vertex -60.4999 4.7 6.78028
      vertex -60.8525 4.7 12.6304
      vertex -63.4495 4.7 12.0784
    endloop
  endfacet
  facet normal 0 -1 0
    outer loop
      vertex -60.8525 4.7 12.6304
      vertex -60.4999 4.7 6.78028
      vertex -58.1975 4.7 12.6304
    endloop
  endfacet
  facet normal 0 -1 0
    outer loop
      vertex -62.3706 4.7 6.23098
      vertex -63.4495 4.7 12.0784
      vertex -65.875 4.7 10.9985
    endloop
  endfacet
  facet normal 0 -1 0
    outer loop
      vertex -58.5501 4.7 6.78028
      vertex -58.1975 4.7 12.6304
      vertex -60.4999 4.7 6.78028
    endloop
  endfacet
  facet normal 0 -1 0
    outer loop
      vertex -64.0108 4.7 5.17688
      vertex -65.875 4.7 10.9985
      vertex -68.023 4.7 9.43794
    endloop
  endfacet
  facet normal 0 -1 -0
    outer loop
      vertex -58.1975 4.7 12.6304
      vertex -58.5501 4.7 6.78028
      vertex -55.6005 4.7 12.0784
    endloop
  endfacet
  facet normal 0 -1 0
    outer loop
      vertex -64.0108 4.7 5.17688
      vertex -68.023 4.7 9.43794
      vertex -69.7995 4.7 7.46487
    endloop
  endfacet
  facet normal 0 -1 0
    outer loop
      vertex -56.6794 4.7 6.23098
      vertex -55.6005 4.7 12.0784
      vertex -58.5501 4.7 6.78028
    endloop
  endfacet
  facet normal 0 -1 -0
    outer loop
      vertex -55.6005 4.7 12.0784
      vertex -56.6794 4.7 6.23098
      vertex -53.175 4.7 10.9985
    endloop
  endfacet
  facet normal 0 -1 0
    outer loop
      vertex -63.4495 4.7 12.0784
      vertex -62.3706 4.7 6.23098
      vertex -60.4999 4.7 6.78028
    endloop
  endfacet
  facet normal 0 -1 0
    outer loop
      vertex -65.875 4.7 10.9985
      vertex -64.0108 4.7 5.17688
      vertex -62.3706 4.7 6.23098
    endloop
  endfacet
  facet normal 0 -1 0
    outer loop
      vertex -65.2876 4.7 3.70339
      vertex -69.7995 4.7 7.46487
      vertex -71.127 4.7 5.16556
    endloop
  endfacet
  facet normal 0 -1 0
    outer loop
      vertex -69.7995 4.7 7.46487
      vertex -65.2876 4.7 3.70339
      vertex -64.0108 4.7 5.17688
    endloop
  endfacet
  facet normal 0 -1 0
    outer loop
      vertex -66.0975 4.7 1.92987
      vertex -71.127 4.7 5.16556
      vertex -71.9475 4.7 2.64048
    endloop
  endfacet
  facet normal 0 -1 0
    outer loop
      vertex -71.127 4.7 5.16556
      vertex -66.0975 4.7 1.92987
      vertex -65.2876 4.7 3.70339
    endloop
  endfacet
  facet normal 0 -1 0
    outer loop
      vertex -66.375 4.7 0
      vertex -71.9475 4.7 2.64048
      vertex -72.225 4.7 0
    endloop
  endfacet
  facet normal 0 -1 0
    outer loop
      vertex -71.9475 4.7 2.64048
      vertex -66.375 4.7 0
      vertex -66.0975 4.7 1.92987
    endloop
  endfacet
  facet normal 0 -1 0
    outer loop
      vertex -71.9475 4.7 -2.64048
      vertex -66.375 4.7 0
      vertex -72.225 4.7 0
    endloop
  endfacet
  facet normal 0 -1 -0
    outer loop
      vertex -66.375 4.7 0
      vertex -71.9475 4.7 -2.64048
      vertex -66.0975 4.7 -1.92987
    endloop
  endfacet
  facet normal 0 -1 0
    outer loop
      vertex -71.127 4.7 -5.16556
      vertex -66.0975 4.7 -1.92987
      vertex -71.9475 4.7 -2.64048
    endloop
  endfacet
  facet normal 0 -1 -0
    outer loop
      vertex -66.0975 4.7 -1.92987
      vertex -71.127 4.7 -5.16556
      vertex -65.2876 4.7 -3.70339
    endloop
  endfacet
  facet normal 0 -1 0
    outer loop
      vertex -69.7995 4.7 -7.46487
      vertex -65.2876 4.7 -3.70339
      vertex -71.127 4.7 -5.16556
    endloop
  endfacet
  facet normal 0 -1 -0
    outer loop
      vertex -65.2876 4.7 -3.70339
      vertex -69.7995 4.7 -7.46487
      vertex -64.0108 4.7 -5.17688
    endloop
  endfacet
  facet normal 0 -1 0
    outer loop
      vertex -68.023 4.7 -9.43794
      vertex -64.0108 4.7 -5.17688
      vertex -69.7995 4.7 -7.46487
    endloop
  endfacet
  facet normal 0 -1 -0
    outer loop
      vertex -64.0108 4.7 -5.17688
      vertex -65.875 4.7 -10.9985
      vertex -62.3706 4.7 -6.23098
    endloop
  endfacet
  facet normal 0 -1 0
    outer loop
      vertex -65.875 4.7 -10.9985
      vertex -64.0108 4.7 -5.17688
      vertex -68.023 4.7 -9.43794
    endloop
  endfacet
  facet normal 0 -1 0
    outer loop
      vertex -55.0392 4.7 5.17688
      vertex -53.175 4.7 10.9985
      vertex -56.6794 4.7 6.23098
    endloop
  endfacet
  facet normal 0 -1 -0
    outer loop
      vertex -53.175 4.7 10.9985
      vertex -55.0392 4.7 5.17688
      vertex -51.027 4.7 9.43794
    endloop
  endfacet
  facet normal 0 -1 -0
    outer loop
      vertex -51.027 4.7 9.43794
      vertex -55.0392 4.7 5.17688
      vertex -49.2505 4.7 7.46487
    endloop
  endfacet
  facet normal 0 -1 0
    outer loop
      vertex -53.7624 4.7 3.70339
      vertex -49.2505 4.7 7.46487
      vertex -55.0392 4.7 5.17688
    endloop
  endfacet
  facet normal 0 -1 -0
    outer loop
      vertex -49.2505 4.7 7.46487
      vertex -53.7624 4.7 3.70339
      vertex -47.923 4.7 5.16556
    endloop
  endfacet
  facet normal 0 -1 0
    outer loop
      vertex -50 4.7 2
      vertex -47.923 4.7 5.16556
      vertex -53.7624 4.7 3.70339
    endloop
  endfacet
  facet normal 0 -1 -0
    outer loop
      vertex -47.923 4.7 5.16556
      vertex -50 4.7 2
      vertex -47.1025 4.7 2.64048
    endloop
  endfacet
  facet normal 0 -1 0
    outer loop
      vertex -52.9525 4.7 1.92987
      vertex -50 4.7 2
      vertex -53.7624 4.7 3.70339
    endloop
  endfacet
  facet normal 0 -1 0
    outer loop
      vertex -52.675 4.7 0
      vertex -50 4.7 2
      vertex -52.9525 4.7 1.92987
    endloop
  endfacet
  facet normal 0 -1 0
    outer loop
      vertex -50 4.7 -2
      vertex -52.675 4.7 0
      vertex -52.9525 4.7 -1.92987
    endloop
  endfacet
  facet normal 0 -1 0
    outer loop
      vertex -52.675 4.7 0
      vertex -50 4.7 -2
      vertex -50 4.7 2
    endloop
  endfacet
  facet normal 0 -1 0
    outer loop
      vertex -50 4.7 -2
      vertex -47.1025 4.7 -2.64048
      vertex -47.0352 4.7 -2
    endloop
  endfacet
  facet normal 0 -1 0
    outer loop
      vertex -53.7624 4.7 -3.70339
      vertex -50 4.7 -2
      vertex -52.9525 4.7 -1.92987
    endloop
  endfacet
  facet normal 0 -1 -0
    outer loop
      vertex -50 4.7 -2
      vertex -53.7624 4.7 -3.70339
      vertex -47.923 4.7 -5.16556
    endloop
  endfacet
  facet normal 0 -1 0
    outer loop
      vertex -50 4.7 -2
      vertex -47.923 4.7 -5.16556
      vertex -47.1025 4.7 -2.64048
    endloop
  endfacet
  facet normal 0 -1 0
    outer loop
      vertex -49.2505 4.7 -7.46487
      vertex -53.7624 4.7 -3.70339
      vertex -55.0392 4.7 -5.17688
    endloop
  endfacet
  facet normal 0 -1 0
    outer loop
      vertex -53.175 4.7 -10.9985
      vertex -55.0392 4.7 -5.17688
      vertex -56.6794 4.7 -6.23098
    endloop
  endfacet
  facet normal 0 -1 0
    outer loop
      vertex -55.6005 4.7 -12.0784
      vertex -56.6794 4.7 -6.23098
      vertex -58.5501 4.7 -6.78028
    endloop
  endfacet
  facet normal 0 -1 0
    outer loop
      vertex -53.7624 4.7 -3.70339
      vertex -49.2505 4.7 -7.46487
      vertex -47.923 4.7 -5.16556
    endloop
  endfacet
  facet normal 0 -1 0
    outer loop
      vertex -63.4495 4.7 -12.0784
      vertex -62.3706 4.7 -6.23098
      vertex -65.875 4.7 -10.9985
    endloop
  endfacet
  facet normal 0 -1 -0
    outer loop
      vertex -62.3706 4.7 -6.23098
      vertex -63.4495 4.7 -12.0784
      vertex -60.4999 4.7 -6.78028
    endloop
  endfacet
  facet normal 0 -1 0
    outer loop
      vertex -55.0392 4.7 -5.17688
      vertex -51.027 4.7 -9.43794
      vertex -49.2505 4.7 -7.46487
    endloop
  endfacet
  facet normal 0 -1 0
    outer loop
      vertex -60.8525 4.7 -12.6304
      vertex -60.4999 4.7 -6.78028
      vertex -63.4495 4.7 -12.0784
    endloop
  endfacet
  facet normal 0 -1 0
    outer loop
      vertex -55.0392 4.7 -5.17688
      vertex -53.175 4.7 -10.9985
      vertex -51.027 4.7 -9.43794
    endloop
  endfacet
  facet normal 0 -1 -0
    outer loop
      vertex -60.4999 4.7 -6.78028
      vertex -60.8525 4.7 -12.6304
      vertex -58.5501 4.7 -6.78028
    endloop
  endfacet
  facet normal 0 -1 0
    outer loop
      vertex -56.6794 4.7 -6.23098
      vertex -55.6005 4.7 -12.0784
      vertex -53.175 4.7 -10.9985
    endloop
  endfacet
  facet normal 0 -1 0
    outer loop
      vertex -58.1975 4.7 -12.6304
      vertex -58.5501 4.7 -6.78028
      vertex -60.8525 4.7 -12.6304
    endloop
  endfacet
  facet normal 0 -1 0
    outer loop
      vertex -58.5501 4.7 -6.78028
      vertex -58.1975 4.7 -12.6304
      vertex -55.6005 4.7 -12.0784
    endloop
  endfacet
  facet normal 0 -1 -0
    outer loop
      vertex -47.1025 4.7 2.64048
      vertex -50 4.7 2
      vertex -47.0352 4.7 2
    endloop
  endfacet
  facet normal -0.406736 0 0.913546
    outer loop
      vertex -65.875 12.7 10.9985
      vertex -63.4495 4.7 12.0784
      vertex -63.4495 12.7 12.0784
    endloop
  endfacet
  facet normal -0.406736 0 0.913546
    outer loop
      vertex -63.4495 4.7 12.0784
      vertex -65.875 12.7 10.9985
      vertex -65.875 4.7 10.9985
    endloop
  endfacet
  facet normal 0.994525 0 -0.104502
    outer loop
      vertex -47.0352 4.7 -2
      vertex -47.1025 12.7 -2.64048
      vertex -47.0352 12.7 -2
    endloop
  endfacet
  facet normal 0.994525 0 -0.104502
    outer loop
      vertex -47.1025 12.7 -2.64048
      vertex -47.0352 4.7 -2
      vertex -47.1025 4.7 -2.64048
    endloop
  endfacet
  facet normal 0 -1 0
    outer loop
      vertex -47.1025 12.7 -2.64048
      vertex -46.825 12.7 0
      vertex -47.0352 12.7 -2
    endloop
  endfacet
  facet normal 0 1 -0
    outer loop
      vertex -58.071 12.7 3.18371
      vertex -58.1975 12.7 12.6304
      vertex -55.6005 12.7 12.0784
    endloop
  endfacet
  facet normal 0 1 0
    outer loop
      vertex -58.1975 12.7 12.6304
      vertex -60.0231 12.7 3.46437
      vertex -60.8525 12.7 12.6304
    endloop
  endfacet
  facet normal 0 1 0
    outer loop
      vertex -58.071 12.7 3.18371
      vertex -55.6005 12.7 12.0784
      vertex -53.175 12.7 10.9985
    endloop
  endfacet
  facet normal 0 1 0
    outer loop
      vertex -60.8525 12.7 12.6304
      vertex -60.0231 12.7 3.46437
      vertex -63.4495 12.7 12.0784
    endloop
  endfacet
  facet normal 0 1 0
    outer loop
      vertex -58.071 12.7 3.18371
      vertex -53.175 12.7 10.9985
      vertex -51.027 12.7 9.43794
    endloop
  endfacet
  facet normal 0 1 0
    outer loop
      vertex -63.4495 12.7 12.0784
      vertex -60.0231 12.7 3.46437
      vertex -65.875 12.7 10.9985
    endloop
  endfacet
  facet normal 0 1 0
    outer loop
      vertex -56.5806 12.7 1.89224
      vertex -51.027 12.7 9.43794
      vertex -49.2505 12.7 7.46487
    endloop
  endfacet
  facet normal 0 1 -0
    outer loop
      vertex -61.817 12.7 2.64512
      vertex -65.875 12.7 10.9985
      vertex -60.0231 12.7 3.46437
    endloop
  endfacet
  facet normal 0 1 0
    outer loop
      vertex -56.5806 12.7 1.89224
      vertex -49.2505 12.7 7.46487
      vertex -47.923 12.7 5.16556
    endloop
  endfacet
  facet normal 0 1 0
    outer loop
      vertex -65.875 12.7 10.9985
      vertex -61.817 12.7 2.64512
      vertex -68.023 12.7 9.43794
    endloop
  endfacet
  facet normal 0 1 0
    outer loop
      vertex -68.023 12.7 9.43794
      vertex -61.817 12.7 2.64512
      vertex -69.7995 12.7 7.46487
    endloop
  endfacet
  facet normal 0 1 0
    outer loop
      vertex -58.1975 12.7 12.6304
      vertex -58.071 12.7 3.18371
      vertex -60.0231 12.7 3.46437
    endloop
  endfacet
  facet normal 0 1 0
    outer loop
      vertex -56.5806 12.7 1.89224
      vertex -47.923 12.7 5.16556
      vertex -47.1025 12.7 2.64048
    endloop
  endfacet
  facet normal 0 1 0
    outer loop
      vertex -51.027 12.7 9.43794
      vertex -56.5806 12.7 1.89224
      vertex -58.071 12.7 3.18371
    endloop
  endfacet
  facet normal 0 1 0
    outer loop
      vertex -56.025 12.7 0
      vertex -47.1025 12.7 2.64048
      vertex -46.825 12.7 0
    endloop
  endfacet
  facet normal 0 1 0
    outer loop
      vertex -47.1025 12.7 2.64048
      vertex -56.025 12.7 0
      vertex -56.5806 12.7 1.89224
    endloop
  endfacet
  facet normal 0 1 -0
    outer loop
      vertex -47.1025 12.7 -2.64048
      vertex -56.025 12.7 0
      vertex -46.825 12.7 0
    endloop
  endfacet
  facet normal 0 1 0
    outer loop
      vertex -56.025 12.7 0
      vertex -47.1025 12.7 -2.64048
      vertex -56.5806 12.7 -1.89224
    endloop
  endfacet
  facet normal 0 1 -0
    outer loop
      vertex -47.923 12.7 -5.16556
      vertex -56.5806 12.7 -1.89224
      vertex -47.1025 12.7 -2.64048
    endloop
  endfacet
  facet normal 0 1 -0
    outer loop
      vertex -49.2505 12.7 -7.46487
      vertex -56.5806 12.7 -1.89224
      vertex -47.923 12.7 -5.16556
    endloop
  endfacet
  facet normal 0 1 -0
    outer loop
      vertex -51.027 12.7 -9.43794
      vertex -56.5806 12.7 -1.89224
      vertex -49.2505 12.7 -7.46487
    endloop
  endfacet
  facet normal 0 1 -0
    outer loop
      vertex -62.8832 12.7 0.986063
      vertex -69.7995 12.7 7.46487
      vertex -61.817 12.7 2.64512
    endloop
  endfacet
  facet normal 0 1 0
    outer loop
      vertex -69.7995 12.7 7.46487
      vertex -62.8832 12.7 0.986063
      vertex -71.127 12.7 5.16556
    endloop
  endfacet
  facet normal 0 1 0
    outer loop
      vertex -71.127 12.7 5.16556
      vertex -62.8832 12.7 0.986063
      vertex -71.9475 12.7 2.64048
    endloop
  endfacet
  facet normal 0 1 0
    outer loop
      vertex -62.8832 12.7 0.986063
      vertex -72.225 12.7 0
      vertex -71.9475 12.7 2.64048
    endloop
  endfacet
  facet normal 0 1 -0
    outer loop
      vertex -62.8832 12.7 -0.986063
      vertex -72.225 12.7 0
      vertex -62.8832 12.7 0.986063
    endloop
  endfacet
  facet normal 0 1 0
    outer loop
      vertex -62.8832 12.7 -0.986063
      vertex -71.9475 12.7 -2.64048
      vertex -72.225 12.7 0
    endloop
  endfacet
  facet normal 0 1 0
    outer loop
      vertex -69.7995 12.7 -7.46487
      vertex -62.8832 12.7 -0.986063
      vertex -61.817 12.7 -2.64512
    endloop
  endfacet
  facet normal 0 1 0
    outer loop
      vertex -65.875 12.7 -10.9985
      vertex -61.817 12.7 -2.64512
      vertex -60.0231 12.7 -3.46437
    endloop
  endfacet
  facet normal 0 1 0
    outer loop
      vertex -56.5806 12.7 -1.89224
      vertex -51.027 12.7 -9.43794
      vertex -58.071 12.7 -3.18371
    endloop
  endfacet
  facet normal 0 1 0
    outer loop
      vertex -62.8832 12.7 -0.986063
      vertex -71.127 12.7 -5.16556
      vertex -71.9475 12.7 -2.64048
    endloop
  endfacet
  facet normal 0 1 -0
    outer loop
      vertex -53.175 12.7 -10.9985
      vertex -58.071 12.7 -3.18371
      vertex -51.027 12.7 -9.43794
    endloop
  endfacet
  facet normal 0 1 0
    outer loop
      vertex -62.8832 12.7 -0.986063
      vertex -69.7995 12.7 -7.46487
      vertex -71.127 12.7 -5.16556
    endloop
  endfacet
  facet normal 0 1 -0
    outer loop
      vertex -55.6005 12.7 -12.0784
      vertex -58.071 12.7 -3.18371
      vertex -53.175 12.7 -10.9985
    endloop
  endfacet
  facet normal 0 1 0
    outer loop
      vertex -61.817 12.7 -2.64512
      vertex -68.023 12.7 -9.43794
      vertex -69.7995 12.7 -7.46487
    endloop
  endfacet
  facet normal 0 1 0
    outer loop
      vertex -58.1975 12.7 -12.6304
      vertex -58.071 12.7 -3.18371
      vertex -55.6005 12.7 -12.0784
    endloop
  endfacet
  facet normal 0 1 0
    outer loop
      vertex -61.817 12.7 -2.64512
      vertex -65.875 12.7 -10.9985
      vertex -68.023 12.7 -9.43794
    endloop
  endfacet
  facet normal 0 1 0
    outer loop
      vertex -58.071 12.7 -3.18371
      vertex -58.1975 12.7 -12.6304
      vertex -60.0231 12.7 -3.46437
    endloop
  endfacet
  facet normal 0 1 0
    outer loop
      vertex -60.0231 12.7 -3.46437
      vertex -63.4495 12.7 -12.0784
      vertex -65.875 12.7 -10.9985
    endloop
  endfacet
  facet normal 0 1 0
    outer loop
      vertex -60.8525 12.7 -12.6304
      vertex -60.0231 12.7 -3.46437
      vertex -58.1975 12.7 -12.6304
    endloop
  endfacet
  facet normal 0 1 0
    outer loop
      vertex -60.0231 12.7 -3.46437
      vertex -60.8525 12.7 -12.6304
      vertex -63.4495 12.7 -12.0784
    endloop
  endfacet
  facet normal 0.207908 0 -0.978148
    outer loop
      vertex -58.1975 4.7 -12.6304
      vertex -55.6005 12.7 -12.0784
      vertex -55.6005 4.7 -12.0784
    endloop
  endfacet
  facet normal 0.207908 0 -0.978148
    outer loop
      vertex -55.6005 12.7 -12.0784
      vertex -58.1975 4.7 -12.6304
      vertex -58.1975 12.7 -12.6304
    endloop
  endfacet
  facet normal 0.866027 0 -0.499998
    outer loop
      vertex -47.923 4.7 -5.16556
      vertex -49.2505 12.7 -7.46487
      vertex -47.923 12.7 -5.16556
    endloop
  endfacet
  facet normal 0.866027 0 -0.499998
    outer loop
      vertex -49.2505 12.7 -7.46487
      vertex -47.923 4.7 -5.16556
      vertex -49.2505 4.7 -7.46487
    endloop
  endfacet
  facet normal -0.587772 0 -0.809027
    outer loop
      vertex -68.023 4.7 -9.43794
      vertex -65.875 12.7 -10.9985
      vertex -65.875 4.7 -10.9985
    endloop
  endfacet
  facet normal -0.587772 0 -0.809027
    outer loop
      vertex -65.875 12.7 -10.9985
      vertex -68.023 4.7 -9.43794
      vertex -68.023 12.7 -9.43794
    endloop
  endfacet
  facet normal -0.866027 0 -0.499998
    outer loop
      vertex -69.7995 4.7 -7.46487
      vertex -71.127 12.7 -5.16556
      vertex -69.7995 12.7 -7.46487
    endloop
  endfacet
  facet normal -0.866027 -0 -0.499998
    outer loop
      vertex -71.127 12.7 -5.16556
      vertex -69.7995 4.7 -7.46487
      vertex -71.127 4.7 -5.16556
    endloop
  endfacet
  facet normal -0.743156 0 -0.669118
    outer loop
      vertex -68.023 4.7 -9.43794
      vertex -69.7995 12.7 -7.46487
      vertex -68.023 12.7 -9.43794
    endloop
  endfacet
  facet normal -0.743156 -0 -0.669118
    outer loop
      vertex -69.7995 12.7 -7.46487
      vertex -68.023 4.7 -9.43794
      vertex -69.7995 4.7 -7.46487
    endloop
  endfacet
  facet normal 0.587772 0 -0.809027
    outer loop
      vertex -53.175 4.7 -10.9985
      vertex -51.027 12.7 -9.43794
      vertex -51.027 4.7 -9.43794
    endloop
  endfacet
  facet normal 0.587772 0 -0.809027
    outer loop
      vertex -51.027 12.7 -9.43794
      vertex -53.175 4.7 -10.9985
      vertex -53.175 12.7 -10.9985
    endloop
  endfacet
  facet normal 0.406736 0 -0.913546
    outer loop
      vertex -55.6005 4.7 -12.0784
      vertex -53.175 12.7 -10.9985
      vertex -53.175 4.7 -10.9985
    endloop
  endfacet
  facet normal 0.406736 0 -0.913546
    outer loop
      vertex -53.175 12.7 -10.9985
      vertex -55.6005 4.7 -12.0784
      vertex -55.6005 12.7 -12.0784
    endloop
  endfacet
  facet normal 0.951051 0 -0.309035
    outer loop
      vertex -47.1025 4.7 -2.64048
      vertex -47.923 12.7 -5.16556
      vertex -47.1025 12.7 -2.64048
    endloop
  endfacet
  facet normal 0.951051 0 -0.309035
    outer loop
      vertex -47.923 12.7 -5.16556
      vertex -47.1025 4.7 -2.64048
      vertex -47.923 4.7 -5.16556
    endloop
  endfacet
  facet normal -0.207908 0 -0.978148
    outer loop
      vertex -63.4495 4.7 -12.0784
      vertex -60.8525 12.7 -12.6304
      vertex -60.8525 4.7 -12.6304
    endloop
  endfacet
  facet normal -0.207908 0 -0.978148
    outer loop
      vertex -60.8525 12.7 -12.6304
      vertex -63.4495 4.7 -12.0784
      vertex -63.4495 12.7 -12.0784
    endloop
  endfacet
  facet normal -0.951051 0 -0.309035
    outer loop
      vertex -71.127 4.7 -5.16556
      vertex -71.9475 12.7 -2.64048
      vertex -71.127 12.7 -5.16556
    endloop
  endfacet
  facet normal -0.951051 -0 -0.309035
    outer loop
      vertex -71.9475 12.7 -2.64048
      vertex -71.127 4.7 -5.16556
      vertex -71.9475 4.7 -2.64048
    endloop
  endfacet
  facet normal -0.994523 0 -0.104519
    outer loop
      vertex -71.9475 4.7 -2.64048
      vertex -72.225 12.7 0
      vertex -71.9475 12.7 -2.64048
    endloop
  endfacet
  facet normal -0.994523 -0 -0.104519
    outer loop
      vertex -72.225 12.7 0
      vertex -71.9475 4.7 -2.64048
      vertex -72.225 4.7 0
    endloop
  endfacet
  facet normal 0.743156 0 -0.669118
    outer loop
      vertex -49.2505 4.7 -7.46487
      vertex -51.027 12.7 -9.43794
      vertex -49.2505 12.7 -7.46487
    endloop
  endfacet
  facet normal 0.743156 0 -0.669118
    outer loop
      vertex -51.027 12.7 -9.43794
      vertex -49.2505 4.7 -7.46487
      vertex -51.027 4.7 -9.43794
    endloop
  endfacet
  facet normal -0.406736 0 -0.913546
    outer loop
      vertex -65.875 4.7 -10.9985
      vertex -63.4495 12.7 -12.0784
      vertex -63.4495 4.7 -12.0784
    endloop
  endfacet
  facet normal -0.406736 0 -0.913546
    outer loop
      vertex -63.4495 12.7 -12.0784
      vertex -65.875 4.7 -10.9985
      vertex -65.875 12.7 -10.9985
    endloop
  endfacet
endsolid OpenSCAD_Model
